<svg width="600" height="424" viewBox="0 0 600 424" fill="none" xmlns="http://www.w3.org/2000/svg">
<g clip-path="url(#clip0_355_3278)">
<path d="M132.955 42.9518H94.6915C91.0129 42.9551 87.4859 44.4179 84.8847 47.0191C82.2836 49.6203 80.8208 53.1473 80.8174 56.8259V98.3094C80.3282 98.2802 79.8391 98.2364 79.357 98.1779C70.2921 97.2242 61.6739 93.7571 54.4741 88.1675C47.2742 82.5779 41.7791 75.0881 38.6082 66.5425C35.4373 57.9969 34.7168 48.7354 36.5278 39.8022C38.3389 30.8691 42.6095 22.6195 48.8582 15.9835C55.1069 9.34763 63.0851 4.58932 71.8934 2.24508C80.7017 -0.0991582 89.9898 0.0639081 98.7103 2.7159C107.431 5.3679 115.237 10.4034 121.249 17.2545C127.261 24.1057 131.239 32.5001 132.736 41.4914C132.816 41.9733 132.889 42.4626 132.955 42.9518Z" fill="#F2F2F2"/>
<path d="M584.665 41.4914H94.6915C90.6259 41.4958 86.7281 43.1129 83.8533 45.9877C80.9785 48.8625 79.3614 52.7603 79.357 56.8259V315.322C79.3614 319.387 80.9785 323.285 83.8533 326.16C86.7281 329.035 90.6259 330.652 94.6915 330.656H584.665C588.731 330.652 592.629 329.035 595.504 326.16C598.379 323.285 599.996 319.387 600 315.322V56.8259C599.996 52.7603 598.379 48.8625 595.504 45.9877C592.629 43.1129 588.731 41.4958 584.665 41.4914ZM598.54 315.322C598.536 319 597.073 322.527 594.472 325.129C591.871 327.73 588.344 329.193 584.665 329.196H94.6915C91.0129 329.193 87.4859 327.73 84.8847 325.129C82.2836 322.527 80.8208 319 80.8174 315.322V56.8259C80.8208 53.1473 82.2836 49.6203 84.8847 47.0191C87.4859 44.418 91.0129 42.9552 94.6915 42.9518H584.665C588.344 42.9552 591.871 44.418 594.472 47.0191C597.073 49.6203 598.536 53.1473 598.54 56.8259V315.322Z" fill="#3F3D56"/>
<path d="M560.568 83.3835H118.789C118.595 83.3835 118.409 83.3066 118.272 83.1697C118.135 83.0327 118.058 82.847 118.058 82.6533C118.058 82.4596 118.135 82.2739 118.272 82.137C118.409 82 118.595 81.9231 118.789 81.9231H560.568C560.762 81.9231 560.948 82 561.085 82.137C561.222 82.2739 561.299 82.4596 561.299 82.6533C561.299 82.847 561.222 83.0327 561.085 83.1697C560.948 83.3066 560.762 83.3835 560.568 83.3835Z" fill="#3F3D56"/>
<path d="M243.655 299.257C243.462 299.257 243.276 299.18 243.139 299.043C243.002 298.906 242.925 298.721 242.925 298.527V58.2863C242.925 58.0927 243.002 57.9069 243.139 57.77C243.276 57.633 243.462 57.5561 243.655 57.5561C243.849 57.5561 244.035 57.633 244.172 57.77C244.309 57.9069 244.386 58.0927 244.386 58.2863V298.527C244.385 298.721 244.309 298.906 244.172 299.043C244.035 299.18 243.849 299.257 243.655 299.257Z" fill="#3F3D56"/>
<path d="M353.918 299.257C353.724 299.257 353.538 299.18 353.401 299.043C353.264 298.906 353.187 298.721 353.187 298.527V58.2863C353.187 58.0927 353.264 57.9069 353.401 57.77C353.538 57.633 353.724 57.5561 353.918 57.5561C354.111 57.5561 354.297 57.633 354.434 57.77C354.571 57.9069 354.648 58.0927 354.648 58.2863V298.527C354.648 298.721 354.571 298.906 354.434 299.043C354.297 299.18 354.111 299.257 353.918 299.257Z" fill="#3F3D56"/>
<path d="M464.18 299.257C463.986 299.257 463.801 299.18 463.664 299.043C463.527 298.906 463.45 298.721 463.45 298.527V58.2863C463.45 58.0927 463.527 57.9069 463.664 57.77C463.801 57.633 463.986 57.5561 464.18 57.5561C464.374 57.5561 464.559 57.633 464.696 57.77C464.833 57.9069 464.91 58.0927 464.91 58.2863V298.527C464.91 298.721 464.833 298.906 464.696 299.043C464.559 299.18 464.374 299.257 464.18 299.257Z" fill="#3F3D56"/>
<path d="M172.763 158.755H146.081C145.21 158.754 144.374 158.407 143.758 157.791C143.142 157.175 142.796 156.34 142.795 155.469V123.982C142.796 123.111 143.142 122.276 143.758 121.66C144.374 121.044 145.21 120.697 146.081 120.696H172.763C173.634 120.697 174.469 121.044 175.085 121.66C175.701 122.276 176.048 123.111 176.049 123.982V155.469C176.048 156.34 175.701 157.175 175.085 157.791C174.469 158.407 173.634 158.754 172.763 158.755Z" fill="#4174FA"/>
<path d="M210.734 248.571H184.052C183.181 248.57 182.346 248.224 181.73 247.608C181.114 246.992 180.767 246.156 180.766 245.285V213.799C180.767 212.927 181.114 212.092 181.73 211.476C182.346 210.86 183.181 210.514 184.052 210.513H210.734C211.605 210.514 212.44 210.86 213.056 211.476C213.673 212.092 214.019 212.927 214.02 213.799V245.285C214.019 246.156 213.673 246.992 213.056 247.608C212.44 248.224 211.605 248.57 210.734 248.571Z" fill="#4174FA"/>
<path d="M296.899 177.74H270.217C269.346 177.739 268.511 177.393 267.895 176.777C267.279 176.161 266.932 175.325 266.931 174.454V142.968C266.932 142.097 267.279 141.261 267.895 140.645C268.511 140.029 269.346 139.683 270.217 139.682H296.899C297.771 139.683 298.606 140.029 299.222 140.645C299.838 141.261 300.184 142.097 300.185 142.968V174.454C300.184 175.325 299.838 176.161 299.222 176.777C298.606 177.393 297.771 177.739 296.899 177.74Z" fill="#4174FA"/>
<path d="M408.622 143.42H381.94C381.069 143.419 380.234 143.073 379.618 142.457C379.002 141.841 378.655 141.005 378.654 140.134V108.648C378.655 107.776 379.002 106.941 379.618 106.325C380.234 105.709 381.069 105.363 381.94 105.362H408.622C409.493 105.363 410.329 105.709 410.945 106.325C411.561 106.941 411.907 107.776 411.908 108.648V140.134C411.907 141.005 411.561 141.841 410.945 142.457C410.329 143.073 409.493 143.419 408.622 143.42Z" fill="#4174FA"/>
<path d="M511.583 143.42H484.901C484.029 143.419 483.194 143.073 482.578 142.457C481.962 141.841 481.616 141.005 481.615 140.134V108.648C481.616 107.776 481.962 106.941 482.578 106.325C483.194 105.709 484.029 105.363 484.901 105.362H511.583C512.454 105.363 513.289 105.709 513.905 106.325C514.521 106.941 514.868 107.776 514.869 108.648V140.134C514.868 141.005 514.521 141.841 513.905 142.457C513.289 143.073 512.454 143.419 511.583 143.42Z" fill="#4174FA"/>
<path d="M559.046 152.183H532.364C531.493 152.182 530.658 151.835 530.042 151.219C529.426 150.603 529.079 149.768 529.078 148.897V117.41C529.079 116.539 529.426 115.704 530.042 115.088C530.658 114.472 531.493 114.125 532.364 114.124H559.046C559.918 114.125 560.753 114.472 561.369 115.088C561.985 115.704 562.331 116.539 562.332 117.41V148.897C562.331 149.768 561.985 150.603 561.369 151.219C560.753 151.835 559.918 152.182 559.046 152.183Z" fill="#E6E6E6"/>
<path d="M537.87 208.409H511.188C510.317 208.408 509.482 208.062 508.866 207.446C508.25 206.83 507.903 205.994 507.902 205.123V173.637C507.903 172.766 508.25 171.93 508.866 171.314C509.482 170.698 510.317 170.352 511.188 170.351H537.87C538.741 170.352 539.577 170.698 540.193 171.314C540.809 171.93 541.155 172.766 541.156 173.637V205.123C541.155 205.994 540.809 206.83 540.193 207.446C539.577 208.062 538.741 208.408 537.87 208.409Z" fill="#E6E6E6"/>
<path d="M447.324 196.726H420.642C419.77 196.725 418.935 196.378 418.319 195.762C417.703 195.146 417.357 194.311 417.356 193.44V161.953C417.357 161.082 417.703 160.247 418.319 159.631C418.935 159.015 419.77 158.668 420.642 158.667H447.324C448.195 158.668 449.03 159.015 449.646 159.631C450.262 160.247 450.609 161.082 450.61 161.953V193.44C450.609 194.311 450.262 195.146 449.646 195.762C449.03 196.378 448.195 196.725 447.324 196.726Z" fill="#FF6584"/>
<path d="M395.478 208.409H368.796C367.925 208.408 367.09 208.062 366.474 207.446C365.858 206.83 365.511 205.994 365.51 205.123V173.637C365.511 172.766 365.858 171.93 366.474 171.314C367.09 170.698 367.925 170.352 368.796 170.351H395.478C396.35 170.352 397.185 170.698 397.801 171.314C398.417 171.93 398.763 172.766 398.764 173.637V205.123C398.763 205.994 398.417 206.83 397.801 207.446C397.185 208.062 396.35 208.408 395.478 208.409Z" fill="#E6E6E6"/>
<path d="M283.756 258.064H257.074C256.202 258.063 255.367 257.716 254.751 257.1C254.135 256.484 253.789 255.649 253.788 254.778V223.291C253.789 222.42 254.135 221.585 254.751 220.969C255.367 220.353 256.202 220.006 257.074 220.005H283.756C284.627 220.006 285.462 220.353 286.078 220.969C286.694 221.585 287.041 222.42 287.042 223.291V254.778C287.041 255.649 286.694 256.484 286.078 257.1C285.462 257.716 284.627 258.063 283.756 258.064Z" fill="#E6E6E6"/>
<path d="M148.666 216.442H121.984C121.113 216.441 120.277 216.094 119.661 215.478C119.045 214.862 118.699 214.027 118.698 213.156V181.669C118.699 180.798 119.045 179.963 119.661 179.347C120.277 178.731 121.113 178.384 121.984 178.383H148.666C149.537 178.384 150.372 178.731 150.988 179.347C151.604 179.963 151.951 180.798 151.952 181.669V213.156C151.951 214.027 151.604 214.862 150.988 215.478C150.372 216.094 149.537 216.441 148.666 216.442Z" fill="#FF6584"/>
<path d="M223.878 158.755H197.196C196.325 158.754 195.489 158.407 194.873 157.791C194.257 157.175 193.911 156.34 193.91 155.469V123.982C193.911 123.111 194.257 122.276 194.873 121.66C195.489 121.044 196.325 120.697 197.196 120.696H223.878C224.749 120.697 225.584 121.044 226.2 121.66C226.816 122.276 227.163 123.111 227.164 123.982V155.469C227.163 156.34 226.816 157.175 226.2 157.791C225.584 158.407 224.749 158.754 223.878 158.755Z" fill="#E6E6E6"/>
<path d="M202.033 71.4302H160.411C159.636 71.4302 158.893 71.1225 158.345 70.5747C157.798 70.0269 157.49 69.284 157.49 68.5093C157.49 67.7347 157.798 66.9917 158.345 66.444C158.893 65.8962 159.636 65.5885 160.411 65.5885H202.033C202.808 65.5885 203.551 65.8962 204.098 66.444C204.646 66.9917 204.954 67.7347 204.954 68.5093C204.954 69.284 204.646 70.0269 204.098 70.5747C203.551 71.1225 202.808 71.4302 202.033 71.4302Z" fill="#CCCCCC"/>
<path d="M319.598 71.4302H277.975C277.201 71.4302 276.458 71.1225 275.91 70.5747C275.362 70.0269 275.055 69.284 275.055 68.5093C275.055 67.7347 275.362 66.9917 275.91 66.444C276.458 65.8962 277.201 65.5885 277.975 65.5885H319.598C320.372 65.5885 321.115 65.8962 321.663 66.444C322.211 66.9917 322.518 67.7347 322.518 68.5093C322.518 69.284 322.211 70.0269 321.663 70.5747C321.115 71.1225 320.372 71.4302 319.598 71.4302Z" fill="#CCCCCC"/>
<path d="M429.86 71.4302H388.238C387.463 71.4302 386.72 71.1225 386.172 70.5747C385.625 70.0269 385.317 69.284 385.317 68.5093C385.317 67.7347 385.625 66.9917 386.172 66.444C386.72 65.8962 387.463 65.5885 388.238 65.5885H429.86C430.635 65.5885 431.378 65.8962 431.925 66.444C432.473 66.9917 432.781 67.7347 432.781 68.5093C432.781 69.284 432.473 70.0269 431.925 70.5747C431.378 71.1225 430.635 71.4302 429.86 71.4302Z" fill="#CCCCCC"/>
<path d="M532.82 71.4302H491.198C490.423 71.4302 489.68 71.1225 489.133 70.5747C488.585 70.0269 488.277 69.284 488.277 68.5093C488.277 67.7347 488.585 66.9917 489.133 66.444C489.68 65.8962 490.423 65.5885 491.198 65.5885H532.82C533.595 65.5885 534.338 65.8962 534.886 66.444C535.433 66.9917 535.741 67.7347 535.741 68.5093C535.741 69.284 535.433 70.0269 534.886 70.5747C534.338 71.1225 533.595 71.4302 532.82 71.4302Z" fill="#CCCCCC"/>
<path d="M108.809 285.304C107.74 285.199 106.708 284.861 105.784 284.315C104.86 283.768 104.068 283.025 103.462 282.139C102.856 281.253 102.452 280.244 102.278 279.185C102.105 278.126 102.165 277.041 102.456 276.008L83.7383 258.584L93.6347 256.073L112.04 271.002C113.744 271.605 115.167 272.812 116.04 274.395C116.913 275.977 117.175 277.825 116.777 279.588C116.379 281.351 115.347 282.907 113.879 283.96C112.41 285.013 110.606 285.492 108.809 285.304Z" fill="#FFB8B8"/>
<path d="M134.654 414.086H143.607L147.866 379.555H134.653L134.654 414.086Z" fill="#FFB8B8"/>
<path d="M160.872 422.397L132.736 422.399L132.736 411.528L150.001 411.527C152.884 411.527 155.649 412.672 157.688 414.711C159.727 416.749 160.872 419.514 160.872 422.397L160.872 422.397Z" fill="#2F2E41"/>
<path d="M73.2734 407.622L81.925 409.925L94.9235 377.652L82.1557 374.254L73.2734 407.622Z" fill="#FFB8B8"/>
<path d="M96.4708 422.4L69.2819 415.163L72.078 404.658L88.7622 409.099C91.5482 409.841 93.9256 411.659 95.3712 414.153C96.8169 416.648 97.2124 419.614 96.4708 422.4Z" fill="#2F2E41"/>
<path d="M146.014 407.548H132.354C131.491 407.551 130.658 407.231 130.02 406.651C129.381 406.07 128.983 405.272 128.903 404.413L120.61 318.298C120.55 317.666 120.271 317.075 119.823 316.626C119.374 316.177 118.784 315.898 118.152 315.836C117.521 315.774 116.887 315.934 116.361 316.288C115.834 316.642 115.446 317.168 115.264 317.776L91.1868 398.245C90.9321 399.1 90.3571 399.824 89.5816 400.266C88.8061 400.707 87.8901 400.832 87.0246 400.615L74.3166 397.437C73.873 397.327 73.4558 397.129 73.0889 396.856C72.722 396.584 72.4126 396.241 72.1787 395.848C71.9447 395.456 71.7907 395.02 71.7256 394.568C71.6605 394.115 71.6856 393.654 71.7993 393.212C72.0068 392.401 92.5452 312.137 92.7245 311.312C97.3781 277.016 102.945 267.825 105.936 262.888C106.184 262.48 106.411 262.104 106.616 261.749C106.873 261.305 108.451 256.897 109.452 254.034C109.582 253.569 109.807 253.135 110.113 252.761C110.419 252.387 110.8 252.08 111.23 251.86C123.798 245.433 138.502 249.882 142.709 251.399C143.407 251.644 144.006 252.11 144.416 252.725C157.038 271.762 150.844 382.331 149.474 404.303C149.417 405.182 149.028 406.007 148.385 406.609C147.743 407.212 146.895 407.547 146.014 407.548Z" fill="#2F2E41"/>
<path d="M110.762 189.422C120.667 189.422 128.697 181.392 128.697 171.487C128.697 161.582 120.667 153.552 110.762 153.552C100.857 153.552 92.8271 161.582 92.8271 171.487C92.8271 181.392 100.857 189.422 110.762 189.422Z" fill="#FFB8B8"/>
<path d="M108.862 257.517L108.733 257.392C108.491 257.158 84.5951 233.747 87.6876 212.101C89.0102 202.842 96.5015 196.926 109.351 194.991C114.072 194.29 118.887 195.316 122.912 197.882C126.937 200.447 129.9 204.378 131.258 208.954L143.963 252.39L108.862 257.517Z" fill="#CCCCCC"/>
<path d="M96.6313 274.167L79.6039 257.248C78.4396 256.084 77.5944 254.641 77.1493 253.056C76.7043 251.471 76.6746 249.799 77.0629 248.199L85.306 214.668C85.5529 213.664 86.0034 212.72 86.6297 211.897C87.2559 211.073 88.0445 210.387 88.9466 209.88C89.8488 209.374 90.8453 209.058 91.8746 208.952C92.9038 208.846 93.9438 208.952 94.9302 209.265C96.8103 209.871 98.3807 211.185 99.3088 212.929C100.237 214.672 100.45 216.709 99.9023 218.607L91.224 248.105L105.258 263.174L96.6313 274.167Z" fill="#CCCCCC"/>
<path d="M187.96 216.423C187.51 217.398 186.852 218.262 186.032 218.954C185.211 219.647 184.249 220.151 183.213 220.432C182.177 220.712 181.092 220.762 180.034 220.578C178.977 220.393 177.972 219.98 177.092 219.365L154.361 231.147L155.366 221.139L175.517 208.667C176.647 207.257 178.256 206.31 180.037 206.006C181.819 205.702 183.65 206.063 185.184 207.019C186.718 207.975 187.847 209.46 188.359 211.193C188.871 212.927 188.729 214.788 187.96 216.423H187.96Z" fill="#FFB8B8"/>
<path d="M174.61 223.873L152.45 233.449C150.976 234.081 149.363 234.323 147.767 234.152C146.172 233.981 144.647 233.402 143.34 232.471L115.161 212.282C114.32 211.679 113.612 210.91 113.08 210.023C112.548 209.136 112.204 208.148 112.069 207.123C111.934 206.097 112.011 205.054 112.295 204.059C112.579 203.065 113.064 202.139 113.72 201.339C114.981 199.818 116.785 198.848 118.749 198.635C120.713 198.421 122.683 198.98 124.242 200.194L148.403 219.21L167.608 211.78L174.61 223.873Z" fill="#CCCCCC"/>
<path d="M113.735 177.234C115.948 174.462 120.081 174.313 123.121 172.484C127.102 170.089 128.747 164.736 127.465 160.271C126.182 155.805 122.398 152.325 118.061 150.661C113.723 148.997 108.897 148.976 104.321 149.781C97.5079 150.979 90.8002 154.158 86.645 159.689C82.4897 165.219 81.4323 173.319 85.1981 179.122C86.9289 181.789 89.6007 183.99 90.2917 187.093C91.1988 191.168 88.341 195.097 85.2793 197.934C81.7913 201.166 77.7895 203.873 74.7336 207.517C71.6777 211.16 69.6399 216.138 71.0343 220.684C72.2027 224.493 75.6025 227.299 79.3306 228.705C83.0587 230.11 87.1191 230.313 91.1026 230.391C94.9707 230.467 99.0792 230.373 102.338 228.287C105.826 226.054 107.689 221.819 107.826 217.679C107.964 213.54 106.581 209.484 104.727 205.781C103.622 203.573 102.337 201.434 101.603 199.077C100.868 196.72 100.741 194.046 101.917 191.875C103.153 189.594 105.654 188.218 108.2 187.717C108.332 187.691 108.472 187.668 108.619 187.647C109.343 187.553 110.041 187.314 110.67 186.942C111.299 186.571 111.846 186.076 112.279 185.487C112.711 184.898 113.019 184.227 113.185 183.516C113.351 182.804 113.371 182.067 113.243 181.347C112.953 179.73 112.978 178.183 113.735 177.234Z" fill="#2F2E41"/>
<path d="M352.861 414.85H343.908L339.65 380.32L352.862 380.32L352.861 414.85Z" fill="#A0616A"/>
<path d="M337.514 412.292H354.779V423.163H326.643C326.643 421.735 326.924 420.322 327.471 419.003C328.017 417.684 328.818 416.485 329.827 415.476C330.837 414.467 332.035 413.666 333.354 413.12C334.673 412.573 336.086 412.292 337.514 412.292Z" fill="#2F2E41"/>
<path d="M417.817 404.71L409.675 408.429L391.453 378.79L403.471 373.3L417.817 404.71Z" fill="#A0616A"/>
<path d="M402.795 408.759L418.499 401.586L423.016 411.474L397.423 423.163C396.83 421.865 396.499 420.462 396.448 419.036C396.397 417.609 396.627 416.186 397.126 414.849C397.625 413.511 398.382 412.285 399.355 411.24C400.327 410.195 401.496 409.352 402.795 408.759Z" fill="#2F2E41"/>
<path d="M391.747 298.423C392.604 297.777 393.31 296.951 393.814 296.004C394.318 295.056 394.608 294.009 394.664 292.937C394.72 291.865 394.54 290.794 394.137 289.799C393.734 288.804 393.118 287.909 392.332 287.178L402.855 263.3L389.486 265.566L381.542 287.894C380.402 289.296 379.815 291.067 379.894 292.873C379.972 294.679 380.71 296.393 381.968 297.691C383.226 298.988 384.916 299.78 386.718 299.915C388.52 300.049 390.31 299.519 391.747 298.423Z" fill="#A0616A"/>
<path d="M352.29 405.745H343.738C342.909 405.743 342.111 405.427 341.503 404.862C340.896 404.298 340.524 403.525 340.461 402.698L335.797 278.153C335.762 277.676 335.832 277.197 336.002 276.749C336.171 276.302 336.437 275.897 336.779 275.563C337.122 275.229 337.533 274.974 337.985 274.815C338.436 274.656 338.917 274.598 339.393 274.645L388.854 279.897C389.656 279.976 390.401 280.346 390.948 280.937C391.494 281.529 391.805 282.3 391.821 283.106L392.857 338.044C392.863 338.342 392.92 338.637 393.028 338.915L413.317 391.529C413.474 391.935 413.548 392.369 413.536 392.805C413.523 393.24 413.424 393.669 413.245 394.066C413.065 394.462 412.809 394.82 412.49 395.116C412.171 395.413 411.796 395.644 411.387 395.794L402.72 398.987C401.968 399.264 401.14 399.257 400.392 398.966C399.645 398.675 399.029 398.12 398.662 397.407L373.738 348.943C373.603 348.68 373.503 348.399 373.443 348.109L369.185 327.595C369.062 327 368.731 326.468 368.251 326.096C367.771 325.723 367.174 325.533 366.567 325.561C365.961 325.588 365.383 325.831 364.939 326.246C364.495 326.66 364.213 327.219 364.144 327.823L355.555 402.833C355.463 403.635 355.08 404.375 354.478 404.912C353.876 405.449 353.097 405.746 352.29 405.745Z" fill="#2F2E41"/>
<path d="M356.549 180.772C366.454 180.772 374.484 172.742 374.484 162.837C374.484 152.932 366.454 144.902 356.549 144.902C346.644 144.902 338.614 152.932 338.614 162.837C338.614 172.742 346.644 180.772 356.549 180.772Z" fill="#A0616A"/>
<path d="M368.848 289.541C356.686 289.407 344.813 285.811 334.621 279.173L334.447 279.053L334.465 278.841L341.325 198.944C341.561 196.234 342.771 193.7 344.731 191.813C346.691 189.925 349.268 188.811 351.985 188.676C360.876 188.268 372.819 188.783 379.212 193.544C388.873 200.74 393.53 211.576 391.987 223.273C388.789 247.53 392.412 280.251 392.836 283.902L392.867 284.165L392.626 284.276C385.178 287.741 377.063 289.538 368.848 289.541Z" fill="#4174FA"/>
<path d="M392.753 284.038C392.248 284.037 391.748 283.931 391.285 283.727C390.823 283.523 390.407 283.226 390.065 282.853L386.142 278.573C385.718 278.108 385.421 277.542 385.279 276.929C385.138 276.315 385.156 275.676 385.332 275.072L394.278 244.794L380.667 216.211C380.031 214.873 379.876 213.357 380.226 211.918C380.535 210.655 381.22 209.515 382.19 208.648C383.16 207.782 384.369 207.23 385.659 207.065C386.95 206.9 388.259 207.13 389.416 207.725C390.573 208.32 391.522 209.251 392.138 210.396L410.609 240.366C411.359 241.582 411.799 242.963 411.891 244.389C411.983 245.815 411.723 247.241 411.135 248.543L396.085 281.888C395.837 282.439 395.456 282.92 394.976 283.287C394.496 283.654 393.932 283.896 393.335 283.991C393.142 284.022 392.948 284.038 392.753 284.038Z" fill="#4174FA"/>
<path d="M266.337 226.201C267.198 226.842 268.19 227.286 269.241 227.502C270.293 227.718 271.379 227.701 272.423 227.452C273.467 227.203 274.444 226.728 275.285 226.06C276.125 225.393 276.81 224.549 277.289 223.589L303.166 226.945L297.219 214.759L273.558 213.44C271.891 212.741 270.025 212.679 268.315 213.264C266.605 213.848 265.169 215.04 264.279 216.613C263.389 218.186 263.107 220.031 263.486 221.798C263.866 223.565 264.88 225.132 266.337 226.201V226.201Z" fill="#A0616A"/>
<path d="M323.375 232.856C322.924 232.856 322.474 232.825 322.028 232.763L281.318 227.117C280.653 227.026 280.02 226.77 279.479 226.374C278.937 225.977 278.502 225.452 278.214 224.845C278.121 224.65 278.043 224.447 277.982 224.24H277.982C277.824 223.701 277.78 223.135 277.852 222.578C277.925 222.021 278.112 221.485 278.401 221.004L281.77 215.418C282.133 214.821 282.642 214.328 283.251 213.984C283.859 213.641 284.545 213.459 285.243 213.457H285.249L320.734 213.498L347.236 189.753C348.47 188.651 350.044 188.007 351.696 187.928C353.146 187.861 354.583 188.235 355.817 189.001C357.05 189.767 358.023 190.888 358.606 192.218C359.189 193.548 359.355 195.023 359.082 196.449C358.81 197.876 358.112 199.186 357.08 200.207L330.635 229.619C329.72 230.638 328.6 231.452 327.35 232.01C326.099 232.568 324.745 232.856 323.375 232.856Z" fill="#4174FA"/>
<path d="M358.588 178.792C360.227 174.999 361.613 169.947 358.47 167.266C356.646 165.71 354.02 165.707 351.631 165.513C344.9 164.968 337.972 161.871 334.682 155.974C331.392 150.077 333.23 141.308 339.436 138.648C343.62 136.854 348.416 138.076 352.795 139.318L365.943 143.046C369.85 144.154 373.952 145.376 376.764 148.305C381.25 152.976 380.914 160.873 377.352 166.281C373.789 171.689 368.424 177.33 362.282 179.383L358.588 178.792Z" fill="#2F2E41"/>
<path d="M539.983 423.401H0.869474C0.755084 423.401 0.641756 423.379 0.535977 423.335C0.430199 423.292 0.334059 423.228 0.253055 423.147C0.172051 423.066 0.107779 422.97 0.0639273 422.864C0.0200752 422.759 -0.00250244 422.646 -0.00250244 422.531C-0.00250244 422.417 0.0200752 422.303 0.0639273 422.198C0.107779 422.092 0.172051 421.996 0.253055 421.915C0.334059 421.835 0.430199 421.771 0.535977 421.727C0.641756 421.684 0.755084 421.661 0.869474 421.662H539.983C540.097 421.661 540.21 421.684 540.316 421.727C540.422 421.771 540.518 421.835 540.599 421.915C540.68 421.996 540.744 422.092 540.788 422.198C540.832 422.303 540.854 422.417 540.854 422.531C540.854 422.646 540.832 422.759 540.788 422.864C540.744 422.97 540.68 423.066 540.599 423.147C540.518 423.228 540.422 423.292 540.316 423.335C540.21 423.379 540.097 423.401 539.983 423.401Z" fill="#3F3D56"/>
</g>
<defs>
<clipPath id="clip0_355_3278">
<rect width="600" height="422.801" fill="white" transform="translate(0 0.599365)"/>
</clipPath>
</defs>
</svg>
