<svg width="96" height="96" viewBox="0 0 96 96" fill="none" xmlns="http://www.w3.org/2000/svg">
<path d="M96 49.08C96 45.92 95.7139 42.92 95.2235 40H49.0421V58.04H75.484C74.2988 63.96 70.825 68.96 65.6756 72.36V84.36H81.4508C90.6871 76 96 63.68 96 49.08Z" fill="#4285F4"/>
<path d="M49.0422 96.0002C62.2836 96.0002 73.359 91.6802 81.4509 84.3602L65.6757 72.3602C61.2619 75.2402 55.6629 77.0002 49.0422 77.0002C36.2504 77.0002 25.4202 68.5602 21.5377 57.1602H5.27209V69.5202C13.3232 85.2002 29.8749 96.0002 49.0422 96.0002Z" fill="#34A853"/>
<path d="M21.5377 57.16C20.516 54.28 19.9847 51.2 19.9847 48C19.9847 44.8 20.5568 41.72 21.5377 38.84V26.48H5.27203C1.92081 32.96 0 40.24 0 48C0 55.76 1.92081 63.04 5.27203 69.52L21.5377 57.16Z" fill="#FBBC05"/>
<path d="M49.0422 19C56.2759 19 62.7331 21.44 67.8417 26.2L81.8187 12.52C73.3589 4.76 62.2836 0 49.0422 0C29.8749 0 13.3232 10.8 5.27209 26.48L21.5377 38.84C25.4202 27.44 36.2504 19 49.0422 19Z" fill="#EA4335"/>
</svg>
